<svg xmlns="http://www.w3.org/2000/svg" viewBox="0 0 150 150">
<!-- SVG created with Arrow, by QuiverAI (https://quiver.ai) -->
  <path d="m144.3 22.9h-138.6c-0.9 0.2-1.7 1-1.7 1.9v79.2c0 1 0.8 2 1.9 2h67.1v3.8h-14.1c-3.3 0.2-6.4 2.7-6.4 6.7v4.3c0 3.3 2.8 6.3 6.4 6.3h32.2c3.4 0 6.4-2.6 6.4-6.3v-4.3c0-3.5-2.8-6.5-6.4-6.5h-14.4v-4h67.7c0.9 0 1.7-0.8 1.7-1.7v-79.5c-0.1-0.9-0.9-1.9-1.8-1.9zm-50.7 93.6v4.3c0 1.2-1.1 2.4-2.5 2.4h-32.2c-1.4 0-2.5-1.1-2.5-2.4v-4.3c0-1.4 1.1-2.5 2.5-2.5h32.2c1.3 0 2.5 1.1 2.5 2.5zm48.7-14.8h-134.6v-74.9h134.6v74.9z"/>
  <path d="m49.4 109.8h-9.8c-6 0-12.3 3.8-12.3 12.5 0 1.1 0.9 1.9 1.9 1.9s2-0.8 2-1.9c0-6 3.9-8.3 8.3-8.3h9.9c1 0 1.9-0.8 1.9-2 0-0.9-0.9-2.2-1.9-2.2z"/>
  <path d="m110.5 109.8h-10c-1 0-1.9 0.9-1.9 2.2 0 1.2 0.9 2 1.9 2h9.9c3.7 0 8.1 1.9 8.1 8.3 0 1.1 0.9 1.9 1.8 1.9 1.1 0 2.2-0.7 2.2-1.9 0-8.5-5.5-12.5-12-12.5z"/>
  <rect x="83" y="116.6" width="4.1" height="3.9"/>
  <path d="m45.3 77.1h-4.1v-24.3h4.1v24.3z"/>
  <path d="m54.9 67.9v9.2h-4.1v-24.3h9.6c5.2 0 8.1 2.9 8.1 7.6 0 4.4-3 7.5-8.1 7.5h-5.5zm0-11.8v8.7h5c2.9 0 4.6-1.5 4.6-4.2 0-2.8-1.7-4.5-4.6-4.5h-5z"/>
  <path d="m70.3 52.8h18.7v3.3h-7.7v21h-3.9v-21h-7.1v-3.3z"/>
  <path d="m99 77.1-8.9-24.3h4.2l6.2 19.4 6.3-19.4h4.6l-8.9 24.3h-3.7z"/>
</svg>