<svg xmlns="http://www.w3.org/2000/svg" viewBox="-24 -24 148 148">
  <!-- SVG created with Arrow, by QuiverAI (https://quiver.ai) -->
  <path d="m90.5 81.5c-3.4-0.2-6.2 1.5-8.1 4.9h-15v-14c3.8-4.4 7.1-10.5 8.3-18.3h7c1.5 2.5 4 4.3 7.8 4.4 4.2 0 8.2-3.6 8.2-8.5 0.1-2.4-0.8-4.5-2.4-6.1-1.5-1.7-3.7-2.9-6.3-3-2.8 0-5.6 1.3-7.2 4.2h-6.8v-17.8l-8.6-2.4v-10.9h15.3c1.4 2.5 3.9 4.5 7.7 4.5 4.3 0.1 8.3-3.6 8.3-8.5 0.2-5-3.4-8.7-8-8.8-3.2-0.1-5.8 1.1-7.9 4h-24.5v17.3l-8-2.3-8.2 2.3v-17.3h-24.8c-1.7-2.3-4-4-7.3-4-4.7 0-8.1 3.8-8.2 8.1 0 5 3.5 9.2 8.2 9.2 3.4 0.1 6.1-1.6 7.4-4.4h15.5v10.8l-8.3 2.3v17.9h-7.3c-1.7-2.4-4.1-4.2-7.3-4.2-4.6 0-8.2 3.8-8.2 8.7 0.1 4.8 3.6 8.8 8.2 8.8 3.2 0.1 5.7-1.6 7.3-4.3h7.5c0.5 3.4 1.5 6.5 3.1 10 1.5 2.9 3.1 5.3 5 8.2v14.1h-15.2c-1.4-2.5-4.1-4.9-7.7-5-4.4-0.1-8.1 3.7-8.2 7.8-0.1 2.4 0.6 4.4 1.9 6.3 1.7 2 3.7 3.4 6.5 3.5 3.1 0.1 5.6-1.3 6.9-3.4l25-0.4v-16l4.8 2.1 2 0.9 1.3 0.5 1.3-0.5 2.2-0.9 4.6-2v15.9h24.7c1.6 2 3.6 3.7 7.5 3.8 5 0 8.3-3.8 8.3-8.5 0.1-4.2-3.2-8.4-8.3-9zm-36.7-10.2-1.9 1-1.7 0.8c-7-2.7-15.8-8.6-16.4-22.6v-16.2l16.4-4.6 16.5 4.6v15.8c-0.1 5.3-1.9 11.3-6.3 15.9-1.8 2-4 3.7-6.6 5.3z"/>
</svg>